<svg xmlns="http://www.w3.org/2000/svg" version="1.1" xmlns:xlink="http://www.w3.org/1999/xlink" xmlns:svgjs="http://svgjs.dev/svgjs" width="1000" height="682" viewBox="0 0 1000 682"><g transform="matrix(1,0,0,1,-0.15933555549457878,0.2761133603238477)"><svg viewBox="0 0 362 247" data-background-color="#ffffff" preserveAspectRatio="xMidYMid meet" height="682" width="1000" xmlns="http://www.w3.org/2000/svg" xmlns:xlink="http://www.w3.org/1999/xlink"><g id="tight-bounds" transform="matrix(1,0,0,1,0.057679471089045364,-0.09999999999999432)"><svg viewBox="0 0 361.8846410578219 247.2" height="247.2" width="361.8846410578219"><g><svg viewBox="0 0 395.52 270.1759978378798" height="247.2" width="361.8846410578219"><g transform="matrix(1,0,0,1,0,200.3703412009088)"><svg viewBox="0 0 395.52 69.80565663697095" height="69.80565663697095" width="395.52"><g id="textblocktransform"><svg viewBox="0 0 395.52 69.80565663697095" height="69.80565663697095" width="395.52" id="textblock"><g><svg viewBox="0 0 395.52 69.80565663697095" height="69.80565663697095" width="395.52"><g transform="matrix(1,0,0,1,0,0)"><svg width="395.52" viewBox="3.05 -37.1 215.62938053097344 37.6" height="69.80565663697095" data-palette-color="#7c9d96"><g class="wordmark-text-0" data-fill-palette-color="primary" id="text-0"><path d="M3.05-36.05L3.05-36.05Q3.05-37.1 3.9-37.1L3.9-37.1 29.7-37.1Q30.5-37.1 30.5-36.15L30.5-36.15 30.45-30.95Q30.45-29.75 29.35-29.75L29.35-29.75 14.2-29.75Q13.15-29.75 13.15-28.85L13.15-28.85 13.15-22.75Q13.15-21.8 13.95-21.8L13.95-21.8 23.9-21.8Q24.85-21.8 24.85-20.9L24.85-20.9 24.85-15.45Q24.85-14.7 24-14.7L24-14.7 13.9-14.7Q13.15-14.7 13.15-14L13.15-14 13.15-1.3Q13.15 0 11.65 0L11.65 0 4.25 0Q3.55 0 3.3-0.28 3.05-0.55 3.05-1.15L3.05-1.15 3.05-36.05ZM35.95-37.1L44.35-37.1Q45.2-37.1 45.2-36.15L45.2-36.15 45.2-1.35Q45.2-0.6 44.82-0.3 44.45 0 43.7 0L43.7 0 36.3 0Q35.6 0 35.35-0.28 35.1-0.55 35.1-1.15L35.1-1.15 35.1-36.05Q35.1-37.1 35.95-37.1L35.95-37.1ZM49.75-30.75L49.75-36.05Q49.75-36.5 50-36.8 50.25-37.1 50.85-37.1L50.85-37.1 80.2-37.1Q80.75-37.1 81.02-36.8 81.3-36.5 81.3-36.05L81.3-36.05 81.3-30.75Q81.3-29.9 80.3-29.9L80.3-29.9 71.2-29.9Q70.6-29.9 70.6-29.4L70.6-29.4 70.6-1Q70.6 0 69.75 0L69.75 0 61.35 0Q60.5 0 60.5-0.95L60.5-0.95 60.5-29.2Q60.5-29.9 60-29.9L60-29.9 50.8-29.9Q49.75-29.9 49.75-30.75L49.75-30.75ZM85.89-36.05L85.89-36.05Q85.89-37.1 86.74-37.1L86.74-37.1 112.54-37.1Q113.34-37.1 113.34-36.15L113.34-36.15 113.29-30.95Q113.29-29.75 112.19-29.75L112.19-29.75 97.04-29.75Q95.99-29.75 95.99-28.85L95.99-28.85 95.99-22.75Q95.99-21.8 96.79-21.8L96.79-21.8 106.74-21.8Q107.69-21.8 107.69-20.9L107.69-20.9 107.69-15.45Q107.69-14.7 106.84-14.7L106.84-14.7 96.74-14.7Q95.99-14.7 95.99-14L95.99-14 95.99-1.3Q95.99 0 94.49 0L94.49 0 87.09 0Q86.39 0 86.14-0.28 85.89-0.55 85.89-1.15L85.89-1.15 85.89-36.05ZM117.94-36.05L117.94-36.05Q117.94-37.1 118.79-37.1L118.79-37.1 127.19-37.1Q128.04-37.1 128.04-36.15L128.04-36.15 128.04-8Q128.04-7.35 128.59-7.35L128.59-7.35 144.09-7.35Q145.14-7.35 145.14-6.5L145.14-6.5 145.14-1Q145.14-0.6 144.87-0.3 144.59 0 143.99 0L143.99 0 119.14 0Q118.44 0 118.19-0.28 117.94-0.55 117.94-1.15L117.94-1.15 117.94-36.05ZM180.24-14.2L180.24-14.2Q180.24-8.7 178.34-5.48 176.44-2.25 172.94-0.88 169.44 0.5 164.74 0.5L164.74 0.5Q158.99 0.5 155.59-1.28 152.19-3.05 150.71-6.58 149.24-10.1 149.24-15.2L149.24-15.2 149.24-36.05Q149.24-37.1 150.14-37.1L150.14-37.1 158.49-37.1Q159.34-37.1 159.34-36.15L159.34-36.15 159.34-14Q159.34-10.05 160.96-8.35 162.59-6.65 165.49-6.65L165.49-6.65Q167.29-6.65 168.76-7.35 170.24-8.05 171.06-9.7 171.89-11.35 171.89-14.15L171.89-14.15 171.89-36.05Q171.89-37.1 172.79-37.1L172.79-37.1 179.44-37.1Q180.24-37.1 180.24-36.15L180.24-36.15 180.24-14.2ZM218.04-2.25L218.04-2.25Q218.89-1 218.61-0.5 218.34 0 217.39 0L217.39 0 209.39 0Q207.99 0 207.54-0.9L207.54-0.9 201.24-11.2Q200.89-11.9 200.59-11.9 200.29-11.9 199.89-11.25L199.89-11.25 193.74-0.9Q193.49-0.4 192.99-0.2 192.49 0 191.84 0L191.84 0 185.49 0Q184.54 0 184.29-0.48 184.04-0.95 184.89-2.25L184.89-2.25 195.04-17.9Q195.44-18.4 195.41-18.75 195.39-19.1 195.04-19.6L195.04-19.6 184.74-35.55Q184.44-36 184.56-36.55 184.69-37.1 185.44-37.1L185.44-37.1 193.89-37.1Q194.64-37.1 195.01-36.88 195.39-36.65 195.64-36.15L195.64-36.15 200.99-27.1Q201.24-26.7 201.56-26.7 201.89-26.7 202.09-27.1L202.09-27.1 207.44-36.15Q207.69-36.65 208.06-36.88 208.44-37.1 209.14-37.1L209.14-37.1 216.14-37.1Q216.94-37.1 216.99-36.6 217.04-36.1 216.69-35.65L216.69-35.65 206.94-20.75Q206.64-20.3 206.66-19.95 206.69-19.6 207.04-19.1L207.04-19.1 218.04-2.25Z" fill="#7c9d96" data-fill-palette-color="primary"></path></g></svg></g></svg></g></svg></g></svg></g><g transform="matrix(1,0,0,1,114.05426959577515,0)"><svg viewBox="0 0 167.41146080844968 167.41146080844968" height="167.41146080844968" width="167.41146080844968"><g><svg></svg></g><g id="icon-0"><svg viewBox="0 0 167.41146080844968 167.41146080844968" height="167.41146080844968" width="167.41146080844968"><g><path d="M0 83.706c0-46.229 37.476-83.706 83.706-83.706 46.229 0 83.706 37.476 83.705 83.706 0 46.229-37.476 83.706-83.705 83.705-46.229 0-83.706-37.476-83.706-83.705zM83.706 161.116c42.753 0 77.411-34.658 77.41-77.41 0-42.753-34.658-77.411-77.41-77.411-42.753 0-77.411 34.658-77.411 77.411 0 42.753 34.658 77.411 77.411 77.41z" data-fill-palette-color="accent" fill="#7c9d96" stroke="transparent"></path></g><g transform="matrix(1,0,0,1,43.784832894319166,37.61013495548943)"><svg viewBox="0 0 79.84179501981134 92.19119089747082" height="92.19119089747082" width="79.84179501981134"><g><svg xmlns="http://www.w3.org/2000/svg" xmlns:xlink="http://www.w3.org/1999/xlink" version="1.1" x="0" y="0" viewBox="9.547 3.29 80.906 93.41999999999999" enable-background="new 0 0 100 100" xml:space="preserve" height="92.19119089747082" width="79.84179501981134" class="icon-z$-0" data-fill-palette-color="accent" id="z$-0"><g fill="#7c9d96" data-fill-palette-color="accent"><path d="M31.112 39.094v21.812L49.999 71.81l18.89-10.903V39.094l-18.89-10.905L31.112 39.094zM60.925 56.308l-10.926 6.307-10.924-6.307V43.692l10.924-6.308 10.926 6.308V56.308z" fill="#7c9d96" data-fill-palette-color="accent"></path><path d="M49.999 3.29L9.547 26.646v46.709L49.999 96.71l40.454-23.355V26.646L49.999 3.29zM82.19 68.584L49.999 87.169 17.811 68.584v-37.17l32.188-18.585L82.19 31.414V68.584z" fill="#7c9d96" data-fill-palette-color="accent"></path><path d="M20.368 32.89v34.218l29.631 17.108 29.634-17.108V32.89L49.999 15.782 20.368 32.89zM71.446 62.383l-21.447 12.38-21.444-12.38V37.618l21.444-12.382 21.447 12.382V62.383z" fill="#7c9d96" data-fill-palette-color="accent"></path></g></svg></g></svg></g></svg></g></svg></g><g></g></svg></g><defs></defs></svg><rect width="361.8846410578219" height="247.2" fill="none" stroke="none" visibility="hidden"></rect></g></svg></g></svg>